<svg width="45" height="45" viewBox="0 0 45 45" fill="none" xmlns="http://www.w3.org/2000/svg">
<path d="M12.5 29.1176H35C36.375 29.1176 37.5 30.3088 37.5 31.7647C37.5 33.2206 36.375 34.4118 35 34.4118H10C8.625 34.4118 7.5 33.2206 7.5 31.7647V5.29412H2.5C1.125 5.29412 0 4.10294 0 2.64706C0 1.19118 1.125 0 2.5 0H10C11.375 0 12.5 1.19118 12.5 2.64706V7.94118H45L35 26.4706H12.5V29.1176ZM11.25 37.0588C13.325 37.0588 15 38.8324 15 41.0294C15 43.2265 13.325 45 11.25 45C9.175 45 7.5 43.2265 7.5 41.0294C7.5 38.8324 9.175 37.0588 11.25 37.0588ZM33.75 37.0588C35.825 37.0588 37.5 38.8324 37.5 41.0294C37.5 43.2265 35.825 45 33.75 45C31.675 45 30 43.2265 30 41.0294C30 38.8324 31.675 37.0588 33.75 37.0588Z" fill="black"/>
</svg>
