<svg width="222" height="28" viewBox="0 0 222 28" fill="none" xmlns="http://www.w3.org/2000/svg">
<path d="M10.3574 16.6465H4.3457V27H0.953125V1.40625H9.42578C12.3086 1.40625 14.5234 2.0625 16.0703 3.375C17.6289 4.6875 18.4082 6.59766 18.4082 9.10547C18.4082 10.6992 17.9746 12.0879 17.1074 13.2715C16.252 14.4551 15.0566 15.3398 13.5215 15.9258L19.5332 26.7891V27H15.9121L10.3574 16.6465ZM4.3457 13.8867H9.53125C11.207 13.8867 12.5371 13.4531 13.5215 12.5859C14.5176 11.7188 15.0156 10.5586 15.0156 9.10547C15.0156 7.52344 14.541 6.31055 13.5918 5.4668C12.6543 4.62305 11.2949 4.19531 9.51367 4.18359H4.3457V13.8867ZM25.8965 10.2832C27.3379 8.51367 29.2129 7.62891 31.5215 7.62891C35.541 7.62891 37.5684 9.89648 37.6035 14.4316V27H34.3516V14.4141C34.3398 13.043 34.0234 12.0293 33.4023 11.373C32.793 10.7168 31.8379 10.3887 30.5371 10.3887C29.4824 10.3887 28.5566 10.6699 27.7598 11.2324C26.9629 11.7949 26.3418 12.5332 25.8965 13.4473V27H22.6445V0H25.8965V10.2832ZM50.3652 27.3516C47.7871 27.3516 45.6895 26.5078 44.0723 24.8203C42.4551 23.1211 41.6465 20.8535 41.6465 18.0176V17.4199C41.6465 15.5332 42.0039 13.8516 42.7188 12.375C43.4453 10.8867 44.4531 9.72656 45.7422 8.89453C47.043 8.05078 48.4492 7.62891 49.9609 7.62891C52.4336 7.62891 54.3555 8.44336 55.7266 10.0723C57.0977 11.7012 57.7832 14.0332 57.7832 17.0684V18.4219H44.8984C44.9453 20.2969 45.4902 21.8145 46.5332 22.9746C47.5879 24.123 48.9238 24.6973 50.541 24.6973C51.6895 24.6973 52.6621 24.4629 53.459 23.9941C54.2559 23.5254 54.9531 22.9043 55.5508 22.1309L57.5371 23.6777C55.9434 26.127 53.5527 27.3516 50.3652 27.3516ZM49.9609 10.3008C48.6484 10.3008 47.5469 10.7812 46.6562 11.7422C45.7656 12.6914 45.2148 14.0273 45.0039 15.75H54.5312V15.5039C54.4375 13.8516 53.9922 12.5742 53.1953 11.6719C52.3984 10.7578 51.3203 10.3008 49.9609 10.3008ZM65.9746 3.375V7.98047H69.5254V10.4941H65.9746V22.2891C65.9746 23.0508 66.1328 23.625 66.4492 24.0117C66.7656 24.3867 67.3047 24.5742 68.0664 24.5742C68.4414 24.5742 68.957 24.5039 69.6133 24.3633V27C68.7578 27.2344 67.9258 27.3516 67.1172 27.3516C65.6641 27.3516 64.5684 26.9121 63.8301 26.0332C63.0918 25.1543 62.7227 23.9062 62.7227 22.2891V10.4941H59.2598V7.98047H62.7227V3.375H65.9746ZM72.127 17.3145C72.127 15.4512 72.4902 13.7754 73.2168 12.2871C73.9551 10.7988 74.9746 9.65039 76.2754 8.8418C77.5879 8.0332 79.082 7.62891 80.7578 7.62891C83.3477 7.62891 85.4395 8.52539 87.0332 10.3184C88.6387 12.1113 89.4414 14.4961 89.4414 17.4727V17.7012C89.4414 19.5527 89.084 21.2168 88.3691 22.6934C87.666 24.1582 86.6523 25.3008 85.3281 26.1211C84.0156 26.9414 82.5039 27.3516 80.793 27.3516C78.2148 27.3516 76.123 26.4551 74.5176 24.6621C72.9238 22.8691 72.127 20.4961 72.127 17.543V17.3145ZM75.3965 17.7012C75.3965 19.8105 75.8828 21.5039 76.8555 22.7812C77.8398 24.0586 79.1523 24.6973 80.793 24.6973C82.4453 24.6973 83.7578 24.0527 84.7305 22.7637C85.7031 21.4629 86.1895 19.6465 86.1895 17.3145C86.1895 15.2285 85.6914 13.541 84.6953 12.252C83.7109 10.9512 82.3984 10.3008 80.7578 10.3008C79.1523 10.3008 77.8574 10.9395 76.873 12.2168C75.8887 13.4941 75.3965 15.3223 75.3965 17.7012ZM102.713 10.8984C102.221 10.8164 101.688 10.7754 101.113 10.7754C98.9805 10.7754 97.5332 11.6836 96.7715 13.5V27H93.5195V7.98047H96.6836L96.7363 10.1777C97.8027 8.47852 99.3145 7.62891 101.271 7.62891C101.904 7.62891 102.385 7.71094 102.713 7.875V10.8984ZM109.252 27H106V7.98047H109.252V27ZM105.736 2.93555C105.736 2.4082 105.895 1.96289 106.211 1.59961C106.539 1.23633 107.02 1.05469 107.652 1.05469C108.285 1.05469 108.766 1.23633 109.094 1.59961C109.422 1.96289 109.586 2.4082 109.586 2.93555C109.586 3.46289 109.422 3.90234 109.094 4.25391C108.766 4.60547 108.285 4.78125 107.652 4.78125C107.02 4.78125 106.539 4.60547 106.211 4.25391C105.895 3.90234 105.736 3.46289 105.736 2.93555ZM122.102 24.6973C123.262 24.6973 124.275 24.3457 125.143 23.6426C126.01 22.9395 126.49 22.0605 126.584 21.0059H129.66C129.602 22.0957 129.227 23.1328 128.535 24.1172C127.844 25.1016 126.918 25.8867 125.758 26.4727C124.609 27.0586 123.391 27.3516 122.102 27.3516C119.512 27.3516 117.449 26.4902 115.914 24.7676C114.391 23.0332 113.629 20.666 113.629 17.666V17.1211C113.629 15.2695 113.969 13.623 114.648 12.1816C115.328 10.7402 116.301 9.62109 117.566 8.82422C118.844 8.02734 120.35 7.62891 122.084 7.62891C124.217 7.62891 125.986 8.26758 127.393 9.54492C128.811 10.8223 129.566 12.4805 129.66 14.5195H126.584C126.49 13.2891 126.021 12.2812 125.178 11.4961C124.346 10.6992 123.314 10.3008 122.084 10.3008C120.432 10.3008 119.148 10.8984 118.234 12.0938C117.332 13.2773 116.881 14.9941 116.881 17.2441V17.8594C116.881 20.0508 117.332 21.7383 118.234 22.9219C119.137 24.1055 120.426 24.6973 122.102 24.6973ZM161.582 18.8789C161.266 21.5859 160.264 23.6777 158.576 25.1543C156.9 26.6191 154.668 27.3516 151.879 27.3516C148.855 27.3516 146.43 26.2676 144.602 24.0996C142.785 21.9316 141.877 19.0312 141.877 15.3984V12.9375C141.877 10.5586 142.299 8.4668 143.143 6.66211C143.998 4.85742 145.205 3.47461 146.764 2.51367C148.322 1.54102 150.127 1.05469 152.178 1.05469C154.896 1.05469 157.076 1.81641 158.717 3.33984C160.357 4.85156 161.312 6.94922 161.582 9.63281H158.189C157.896 7.59375 157.258 6.11719 156.273 5.20312C155.301 4.28906 153.936 3.83203 152.178 3.83203C150.021 3.83203 148.328 4.62891 147.098 6.22266C145.879 7.81641 145.27 10.084 145.27 13.0254V15.5039C145.27 18.2812 145.85 20.4902 147.01 22.1309C148.17 23.7715 149.793 24.5918 151.879 24.5918C153.754 24.5918 155.189 24.1699 156.186 23.3262C157.193 22.4707 157.861 20.9883 158.189 18.8789H161.582ZM177.438 25.1191C176.172 26.6074 174.314 27.3516 171.865 27.3516C169.838 27.3516 168.291 26.7656 167.225 25.5938C166.17 24.4102 165.637 22.6641 165.625 20.3555V7.98047H168.877V20.2676C168.877 23.1504 170.049 24.5918 172.393 24.5918C174.877 24.5918 176.529 23.666 177.35 21.8145V7.98047H180.602V27H177.508L177.438 25.1191ZM201.66 17.7012C201.66 20.6074 200.992 22.9453 199.656 24.7148C198.32 26.4727 196.527 27.3516 194.277 27.3516C191.875 27.3516 190.018 26.502 188.705 24.8027L188.547 27H185.559V0H188.811V10.0723C190.123 8.44336 191.934 7.62891 194.242 7.62891C196.551 7.62891 198.361 8.50195 199.674 10.248C200.998 11.9941 201.66 14.3848 201.66 17.4199V17.7012ZM198.408 17.332C198.408 15.1172 197.98 13.4062 197.125 12.1992C196.27 10.9922 195.039 10.3887 193.434 10.3887C191.289 10.3887 189.748 11.3848 188.811 13.377V21.6035C189.807 23.5957 191.359 24.5918 193.469 24.5918C195.027 24.5918 196.24 23.9883 197.107 22.7812C197.975 21.5742 198.408 19.7578 198.408 17.332ZM213.666 27.3516C211.088 27.3516 208.99 26.5078 207.373 24.8203C205.756 23.1211 204.947 20.8535 204.947 18.0176V17.4199C204.947 15.5332 205.305 13.8516 206.02 12.375C206.746 10.8867 207.754 9.72656 209.043 8.89453C210.344 8.05078 211.75 7.62891 213.262 7.62891C215.734 7.62891 217.656 8.44336 219.027 10.0723C220.398 11.7012 221.084 14.0332 221.084 17.0684V18.4219H208.199C208.246 20.2969 208.791 21.8145 209.834 22.9746C210.889 24.123 212.225 24.6973 213.842 24.6973C214.99 24.6973 215.963 24.4629 216.76 23.9941C217.557 23.5254 218.254 22.9043 218.852 22.1309L220.838 23.6777C219.244 26.127 216.854 27.3516 213.666 27.3516ZM213.262 10.3008C211.949 10.3008 210.848 10.7812 209.957 11.7422C209.066 12.6914 208.516 14.0273 208.305 15.75H217.832V15.5039C217.738 13.8516 217.293 12.5742 216.496 11.6719C215.699 10.7578 214.621 10.3008 213.262 10.3008Z" fill="#4D4D64"/>
</svg>
